<svg id="L_sqvnrKe" viewBox="0 0 230 104.62130187732203" height="104.62130187732203" width="230">
  <defs id="SvgjsDefs1078"></defs>
  <g id="SvgjsG1079" featurekey="odWo6G-0"
    transform="matrix(0.7372365030463203,0,0,0.7372365030463203,-6.862197083497073,16.255269939073592)" fill="#1e56a0">
    <g xmlns="http://www.w3.org/2000/svg">
      <g>
        <g>
          <g>
            <path
              d="M35.194,73.077H15.575c-3.455,0-6.267-2.812-6.267-6.269V26.267c0-3.455,2.812-6.267,6.267-6.267h55.233      c3.455,0,6.267,2.812,6.267,6.267v2.656l-1.959,1.473v-4.129c0-2.376-1.932-4.308-4.308-4.308H15.575      c-2.376,0-4.308,1.932-4.308,4.308v40.541c0,2.376,1.932,4.31,4.308,4.31h20.209L35.194,73.077z M48.633,71.118h22.175      c2.376,0,4.308-1.934,4.308-4.31V44.593l1.959-1.551v23.766c0,3.457-2.812,6.269-6.267,6.269H47.126L48.633,71.118z">
            </path>
          </g>
          <g>
            <path
              d="M24.658,36.495l-7.613-3.334c-0.993-0.427-1.112-0.945-1.112-1.49c0-0.756,0.545-1.276,1.301-1.276      c0.331,0,0.71,0.048,1.301,0.331l9.622,4.421c0.497,0.237,0.874,0.758,0.874,1.349c0,0.591-0.377,1.11-0.874,1.347l-9.622,4.421      c-0.591,0.285-0.97,0.331-1.301,0.331c-0.756,0-1.301-0.52-1.301-1.276c0-0.543,0.119-1.064,1.112-1.49L24.658,36.495z">
            </path>
          </g>
        </g>
        <g>
          <g>
            <path
              d="M76.884,43.505c-0.53,0-1.027-0.207-1.4-0.58l-5.62-5.622c-0.373-0.371-0.58-0.868-0.581-1.396      c0-0.53,0.206-1.029,0.581-1.404l11.826-11.826c0.754-0.752,2.055-0.744,2.801,0l5.62,5.62c0.375,0.373,0.582,0.87,0.582,1.4      c0,0.53-0.207,1.027-0.583,1.402L78.284,42.925C77.907,43.3,77.412,43.505,76.884,43.505z M83.105,24.061L71.248,35.887      l5.636,5.658c0.01,0,0.013-0.004,0.017-0.008l11.824-11.826L83.105,24.061z">
            </path>
          </g>
          <g>
            <path
              d="M34.5,80c-0.54,0-1.035-0.241-1.358-0.658c-0.329-0.425-0.436-0.983-0.293-1.528l2.078-8.015      c0.088-0.327,0.26-0.622,0.499-0.857l41.138-41.138c0.668-0.671,1.819-0.712,2.451-0.078l6.047,6.047      c0.652,0.652,0.62,1.752-0.075,2.45L43.841,77.368c-0.235,0.235-0.528,0.404-0.849,0.49l-8.019,2.081      C34.816,79.979,34.657,80,34.5,80z M77.796,29.276L36.805,70.332l-1.968,7.617l7.658-1.988L83.48,34.959L77.796,29.276z">
            </path>
          </g>
        </g>
        <path
          d="M39.376,73.46c-0.251,0-0.501-0.096-0.693-0.287c-0.383-0.383-0.383-1.002,0-1.385l41.504-41.505    c0.383-0.383,1.002-0.383,1.385,0c0.383,0.383,0.383,1.002,0,1.385L40.069,73.173C39.878,73.364,39.627,73.46,39.376,73.46z">
        </path>
      </g>
    </g>
  </g>
  <g id="SvgjsG1080" featurekey="VGK2BT-0"
    transform="matrix(7.7157122949150185,0,0,7.7157122949150185,72.02411191978027,-49.69558196315681)" fill="#163172">
    <path
      d="M6.949 12.034099999999999 c0.18644 0.11864 0.23729 0.22017 0.11848 0.40661 l-0.69475 1.0169 c-0.084746 0.11864 -0.20339 0.15254 -0.35593 0.11864 c-0.35593 -0.16949 -0.66102 -0.32203 -1.2203 -0.32203 s-1.4407 0.23729 -1.9153 1.2881 l0 5.1866 c0 0.15238 -0.10169 0.27102 -0.25424 0.27102 l-1.339 0 c-0.15254 0 -0.25424 -0.11864 -0.25424 -0.27102 l0 -7.8476 c0 -0.15238 0.11864 -0.27119 0.25424 -0.27119 l0.9322 0 c0.40678 0 0.66102 0.42373 0.66102 0.72881 l0 0.11881 c0.59322 -0.54237 1.3051 -0.91525 2.2373 -0.91525 c0.86441 0 1.5085 0.27119 1.8305 0.49153 z M10.339025423728813 6.441000000000001 l-1.3053 0 c-0.16933 0 -0.27119 0.11864 -0.27119 0.27119 l0 12.61 c0 0.38983 0.23746 0.6778 0.66119 0.6778 l0.91525 0 c0.16949 0 0.27119 -0.10153 0.27119 -0.28797 l0 -13 c0 -0.15254 -0.11864 -0.27119 -0.27119 -0.27119 z M20.423559322033896 19.57644 c0.11864 0.18644 -0.00016552 0.4239 -0.18661 0.4239 l-1.4407 0 c-0.15254 0 -0.22034 -0.08458 -0.30508 -0.20322 l-1.9322 -2.7627 l-1.9153 2.7627 c-0.10169 0.13559 -0.15254 0.20322 -0.32203 0.20322 l-1.4068 0 c-0.18644 0 -0.30508 -0.25424 -0.18644 -0.42373 l2.7119 -3.7458 l-2.7288 -3.7966 c-0.11864 -0.16949 0 -0.4239 0.20339 -0.4239 l1.4068 0 c0.15254 0 0.23729 0.067797 0.32203 0.20339 l1.9153 2.7966 l1.9322 -2.7966 c0.084746 -0.11864 0.15254 -0.20339 0.3222 -0.20339 l1.4407 0 c0.18644 0 0.28814 0.23729 0.16949 0.42373 l-2.7458 3.7966 z">
    </path>
  </g>
</svg>
